<?xml version="1.0" encoding="UTF-8"?><svg id="Wordmark" xmlns="http://www.w3.org/2000/svg" viewBox="0 0 315 185"><defs><style>.cls-1{fill:#54ba5e;fill-rule:evenodd;stroke-width:0px;}</style></defs><path id="Fill-1" class="cls-1" d="M285.1,156.48v-42.01c0-23.58-18.86-43.18-42.44-43.3-23.69-.12-42.98,19.18-42.86,42.86.12,23.58,19.72,42.44,43.3,42.44h42.01ZM242.45,42.74c39.26,0,71.08,31.82,71.08,71.08v71.08h-71.08c-39.26,0-71.08-31.83-71.08-71.08s31.82-71.08,71.08-71.08Z"/><polygon id="Fill-3" class="cls-1" points="128.71 184.91 157.14 184.91 157.14 42.74 128.71 42.74 128.71 184.91"/><path id="Fill-5" class="cls-1" d="M157.14,14.31c0,7.85-6.37,14.22-14.22,14.22s-14.22-6.37-14.22-14.22S135.08.09,142.93.09s14.22,6.37,14.22,14.22"/><path id="Fill-6" class="cls-1" d="M20.67,140.85c5.15,5.8,11.47,10.59,18.97,14.36,7.49,3.77,14.73,5.68,21.71,5.73,7.52.06,13.71-1.71,18.56-5.3,4.86-3.59,7.3-7.42,7.33-11.51.03-4.27-1.42-7.72-4.36-10.35-2.94-2.62-7.09-4.42-12.45-5.39l-15.82-3.18c-17.52-3.48-29.66-8.26-36.42-14.35-6.76-6.09-10.11-14.24-10.03-24.46.08-12.08,4.76-22.4,14.04-30.98,9.28-8.57,21.7-12.8,37.28-12.69,9.13.07,17.8,1.62,26.02,4.65,8.21,3.03,16.68,7.84,25.41,14.4l-8.18,10.35-7.81,9.88c-6.23-5.62-12.29-9.57-18.18-11.84-5.89-2.27-11.43-3.43-16.62-3.47-6.45-.05-12.05,1.45-16.82,4.48-4.77,3.03-7.16,7.15-7.2,12.35-.05,7.43,5.55,12.21,16.82,14.34l28.16,5.78c22.88,4.63,34.26,16.7,34.12,36.21-.04,5.2-1.15,10.44-3.33,15.72-2.18,5.28-5.53,10.18-10.04,14.7-4.51,4.52-10.31,8.1-17.4,10.74-7.09,2.64-15.29,3.93-24.6,3.86-21.13-.16-40.59-8.2-58.38-24.13l19.2-19.93Z"/></svg>